<svg xmlns="http://www.w3.org/2000/svg" viewBox="0 0 120 80" role="img" aria-label="race horse">
  <path fill="#1b1f1a" opacity=".16" d="M21 64c15 5 59 6 78 1 5-2 5-6-1-7-21-3-54-3-76 0-7 1-8 4-1 6Z"/>
  <path fill="#7a3f22" d="M18 45c9-13 20-19 38-18l13-14c7-7 19-5 24 5l7 15c7 1 12 5 14 11 2 7-1 12-7 16l-9 6-5-8 7-6c3-3 2-6-2-7l-12-2-5-13-13 12-35 2-11 18H10l13-21-5-1Z"/>
  <path fill="#c6732d" d="M42 29c14-5 26-4 39 3l-13 10-31 2 5-15Z"/>
  <path fill="#f2bf4b" d="M67 14c10-4 20-1 28 7l-16 3-14 13-10-5 12-18Z"/>
  <path fill="#20241f" d="M96 36h6v5h-6zM43 46h9l-4 24H37l6-24ZM68 45h9l-3 25H63l5-25ZM30 44l-18-8 5-8 17 9-4 7ZM84 45h8l11 21H91l-7-21Z"/>
  <path fill="#fff7dc" d="M79 25c4-2 8-1 12 2l-11 2-7 8-5-3 11-9Z"/>
</svg>
